{"title":"Two.Weeks.Notice.2002.AC3.5.1.DVDRip.Xvid.RoSubbed-KRYSTY","uid":7605103,"size":1463240417,"categoryP":"video","categoryS":"movies","magnet":"?xt=urn:btih:c5bca4bc28ef8e38f3b3e3f7feb75f4564cb2b12&amp;dn=Two.Weeks.Notice.2002.AC3.5.1.DVDRip.Xvid.RoSubbed-KRYSTY&amp;tr=udp%3A%2F%2Ftracker.openbittorrent.com%3A80&amp;tr=udp%3A%2F%2Fopen.demonii.com%3A1337&amp;tr=udp%3A%2F%2Ftracker.coppersurfer.tk%3A6969&amp;tr=udp%3A%2F%2Fexodus.desync.com%3A6969","seeders":0,"leechers":0,"uploader":"yokrysty","files":-1,"time":1346928364,"description":"General\nComplete name                            : Two Weeks Notice.avi\nFormat                                   : AVI\nFormat/Info                              : Audio Video Interleave\nFile size                                : 1.36 GiB\nDuration                                 : 1h 37mn\nOverall bit rate                         : 2 010 Kbps\n\nVideo\nID                                       : 0\nFormat                                   : MPEG-4 Visual\nFormat profile                           : Advanced Simple@L5\nFormat settings, BVOP                    : 2\nFormat settings, QPel                    : No\nFormat settings, GMC                     : No warppoints\nFormat settings, Matrix                  : Default (H.263)\nCodec ID                                 : XVID\nCodec ID/Hint                            : XviD\nDuration                                 : 1h 37mn\nBit rate                                 : 1 618 Kbps\nWidth                                    : 720 pixels\nHeight                                   : 400 pixels\nDisplay aspect ratio                     : 16:9\nFrame rate                               : 25.000 fps\nColor space                              : YUV\nChroma subsampling                       : 4:2:0\nBit depth                                : 8 bits\nScan type                                : Progressive\nCompression mode                         : Lossy\nBits/(Pixel*Frame)                       : 0.225\nStream size                              : 1.10 GiB (80%)\nWriting library                          : XviD 1.2.1 (UTC 2008-12-04)\n\nAudio\nID                                       : 1\nFormat                                   : AC-3\nFormat/Info                              : Audio Coding 3\nMode extension                           : CM (complete main)\nFormat settings, Endianness              : Big\nCodec ID                                 : 2000\nDuration                                 : 1h 37mn\nBit rate mode                            : Constant\nBit rate                                 : 384 Kbps\nChannel(s)                               : 6 channels\nChannel positions                        : Front: L C R, Side: L R, LFE\nSampling rate                            : 48.0 KHz\nBit depth                                : 16 bits\nCompression mode                         : Lossy\nStream size                              : 267 MiB (19%)\nAlignment                                : Aligned on interleaves\nInterleave, duration                     : 64 ms (1.60 video frames)\nInterleave, preload duration             : 192 ms\n\nSubtitle\nFormat                                   : SRT\nLanguage                                 : Romanian","torrent":{"xt":"urn:btih:c5bca4bc28ef8e38f3b3e3f7feb75f4564cb2b12","amp;dn":"Two.Weeks.Notice.2002.AC3.5.1.DVDRip.Xvid.RoSubbed-KRYSTY","amp;tr":["udp%3A%2F%2Ftracker.openbittorrent.com%3A80","udp%3A%2F%2Fopen.demonii.com%3A1337","udp%3A%2F%2Ftracker.coppersurfer.tk%3A6969","udp%3A%2F%2Fexodus.desync.com%3A6969"],"infoHash":"c5bca4bc28ef8e38f3b3e3f7feb75f4564cb2b12","infoHashBuffer":{"type":"Buffer","data":[197,188,164,188,40,239,142,56,243,179,227,247,254,183,95,69,100,203,43,18]},"announce":[],"urlList":[]}}